<svg width="1280" height="320" viewBox="0 0 1280 320" fill="none" xmlns="http://www.w3.org/2000/svg">
  <defs>
    <linearGradient id="bg" x1="0" y1="0" x2="1280" y2="320" gradientUnits="userSpaceOnUse">
      <stop offset="0" stop-color="#080B10" />
      <stop offset="0.5" stop-color="#111827" />
      <stop offset="1" stop-color="#0F172A" />
    </linearGradient>
    <radialGradient id="leftGlow" cx="0" cy="0" r="1" gradientUnits="userSpaceOnUse" gradientTransform="translate(250 150) rotate(12) scale(290 220)">
      <stop stop-color="#F97316" stop-opacity="0.55" />
      <stop offset="1" stop-color="#F97316" stop-opacity="0" />
    </radialGradient>
    <radialGradient id="rightGlow" cx="0" cy="0" r="1" gradientUnits="userSpaceOnUse" gradientTransform="translate(1040 150) rotate(-8) scale(320 220)">
      <stop stop-color="#22C55E" stop-opacity="0.35" />
      <stop offset="1" stop-color="#22C55E" stop-opacity="0" />
    </radialGradient>
    <linearGradient id="accent" x1="390" y1="105" x2="915" y2="210" gradientUnits="userSpaceOnUse">
      <stop offset="0" stop-color="#F97316" />
      <stop offset="0.55" stop-color="#FB923C" />
      <stop offset="1" stop-color="#38BDF8" />
    </linearGradient>
    <pattern id="grid" width="28" height="28" patternUnits="userSpaceOnUse">
      <path d="M28 0H0V28" stroke="white" stroke-opacity="0.06" />
    </pattern>
    <filter id="softBlur" x="-20%" y="-20%" width="140%" height="140%">
      <feGaussianBlur stdDeviation="24" />
    </filter>
  </defs>

  <rect width="1280" height="320" rx="28" fill="url(#bg)" />
  <rect width="1280" height="320" rx="28" fill="url(#grid)" />

  <ellipse cx="240" cy="150" rx="240" ry="175" fill="url(#leftGlow)" />
  <ellipse cx="1040" cy="155" rx="270" ry="180" fill="url(#rightGlow)" />

  <g opacity="0.8">
    <circle cx="180" cy="160" r="58" stroke="#F97316" stroke-width="3" />
    <path d="M180 90V118" stroke="#F97316" stroke-width="3" stroke-linecap="round" />
    <path d="M180 202V230" stroke="#F97316" stroke-width="3" stroke-linecap="round" />
    <path d="M110 160H138" stroke="#F97316" stroke-width="3" stroke-linecap="round" />
    <path d="M222 160H250" stroke="#F97316" stroke-width="3" stroke-linecap="round" />
    <circle cx="180" cy="160" r="10" fill="#F97316" />
  </g>

  <g opacity="0.75">
    <rect x="938" y="78" width="248" height="164" rx="18" stroke="#22C55E" stroke-width="3" />
    <path d="M1062 78V242" stroke="#22C55E" stroke-width="3" />
    <circle cx="1062" cy="160" r="30" stroke="#22C55E" stroke-width="3" />
    <rect x="938" y="120" width="34" height="80" rx="8" stroke="#22C55E" stroke-width="3" />
    <rect x="1152" y="120" width="34" height="80" rx="8" stroke="#22C55E" stroke-width="3" />
    <circle cx="1110" cy="118" r="8" fill="#22C55E" />
    <circle cx="1010" cy="210" r="8" fill="#22C55E" />
  </g>

  <g filter="url(#softBlur)" opacity="0.35">
    <rect x="365" y="112" width="546" height="98" rx="18" fill="#111827" />
  </g>

  <path d="M345 92H927" stroke="url(#accent)" stroke-width="2" stroke-opacity="0.65" />
  <path d="M345 228H927" stroke="url(#accent)" stroke-width="2" stroke-opacity="0.35" />

  <text x="640" y="132" text-anchor="middle" fill="white" font-family="'Segoe UI', Arial, sans-serif" font-size="42" font-weight="700" letter-spacing="1.2">
    RENANZINHO 1989
  </text>
  <text x="640" y="174" text-anchor="middle" fill="#E5E7EB" font-family="'Segoe UI', Arial, sans-serif" font-size="18" font-weight="600" letter-spacing="3">
    DEVELOPER IN PROGRESS
  </text>
  <text x="640" y="205" text-anchor="middle" fill="url(#accent)" font-family="'Segoe UI', Arial, sans-serif" font-size="18" font-weight="700" letter-spacing="2.5">
    CS2  |  EFOOTBALL  |  COMPETITIVE MINDSET
  </text>
</svg>
